<svg xmlns="http://www.w3.org/2000/svg" width="255" height="255" viewBox="0 0 255 255" fill="none">
  <path d="M207.937 99.1512C191.855 85.7188 164.856 69.7266 127.503 69.7266C90.0746 69.7266 63.0257 85.8035 46.9238 99.2856C32.4157 111.433 24.0137 123.645 21.5234 127.515C24.0137 131.395 32.5203 143.706 47.0832 155.864C63.1502 169.281 90.1493 185.273 127.503 185.273C164.931 185.273 191.98 169.196 208.082 155.714C222.59 143.567 230.992 131.35 233.482 127.485C231.002 123.62 222.5 111.308 207.937 99.1512ZM182.921 106.124C182.921 105.463 183.183 104.83 183.65 104.363C184.117 103.896 184.75 103.634 185.411 103.634C186.071 103.634 186.705 103.896 187.172 104.363C187.639 104.83 187.901 105.463 187.901 106.124V112.21C187.901 112.87 187.639 113.504 187.172 113.971C186.705 114.438 186.071 114.7 185.411 114.7C184.75 114.7 184.117 114.438 183.65 113.971C183.183 113.504 182.921 112.87 182.921 112.21V106.124ZM72.0852 148.886C72.0852 149.547 71.8228 150.18 71.3558 150.647C70.8888 151.114 70.2554 151.376 69.5949 151.376C68.9345 151.376 68.3011 151.114 67.8341 150.647C67.3671 150.18 67.1047 149.547 67.1047 148.886V142.79C67.1047 142.13 67.3671 141.496 67.8341 141.029C68.3011 140.562 68.9345 140.3 69.5949 140.3C70.2554 140.3 70.8888 140.562 71.3558 141.029C71.8228 141.496 72.0852 142.13 72.0852 142.79V148.886ZM69.5949 129.99H48.4628C47.8023 129.99 47.1689 129.728 46.7019 129.261C46.2349 128.794 45.9726 128.16 45.9726 127.5C45.9726 126.84 46.2349 126.206 46.7019 125.739C47.1689 125.272 47.8023 125.01 48.4628 125.01H69.5949C70.2554 125.01 70.8888 125.272 71.3558 125.739C71.8228 126.206 72.0852 126.84 72.0852 127.5C72.0852 128.16 71.8228 128.794 71.3558 129.261C70.8888 129.728 70.2554 129.99 69.5949 129.99ZM72.0852 112.21C72.0852 112.87 71.8228 113.504 71.3558 113.971C70.8888 114.438 70.2554 114.7 69.5949 114.7C68.9345 114.7 68.3011 114.438 67.8341 113.971C67.3671 113.504 67.1047 112.87 67.1047 112.21V106.114C67.1047 105.453 67.3671 104.82 67.8341 104.353C68.3011 103.886 68.9345 103.624 69.5949 103.624C70.2554 103.624 70.8888 103.886 71.3558 104.353C71.8228 104.82 72.0852 105.453 72.0852 106.114V112.21ZM127.503 170.332C119.031 170.332 110.75 167.82 103.707 163.114C96.6629 158.407 91.173 151.718 87.9312 143.891C84.6893 136.065 83.8411 127.452 85.4938 119.144C87.1465 110.835 91.2258 103.203 97.216 97.2132C103.206 91.223 110.838 87.1437 119.147 85.491C127.455 83.8383 136.067 84.6865 143.894 87.9284C151.72 91.1702 158.41 96.6601 163.116 103.704C167.823 110.747 170.335 119.029 170.335 127.5C170.319 138.855 165.801 149.74 157.772 157.769C149.743 165.799 138.858 170.316 127.503 170.332ZM187.901 148.876C187.901 149.537 187.639 150.17 187.172 150.637C186.705 151.104 186.071 151.366 185.411 151.366C184.75 151.366 184.117 151.104 183.65 150.637C183.183 150.17 182.921 149.537 182.921 148.876V142.79C182.921 142.13 183.183 141.496 183.65 141.029C184.117 140.562 184.75 140.3 185.411 140.3C186.071 140.3 186.705 140.562 187.172 141.029C187.639 141.496 187.901 142.13 187.901 142.79V148.876ZM206.543 129.99H185.411C184.75 129.99 184.117 129.728 183.65 129.261C183.183 128.794 182.921 128.16 182.921 127.5C182.921 126.84 183.183 126.206 183.65 125.739C184.117 125.272 184.75 125.01 185.411 125.01H206.543C207.203 125.01 207.837 125.272 208.304 125.739C208.771 126.206 209.033 126.84 209.033 127.5C209.033 128.16 208.771 128.794 208.304 129.261C207.837 129.728 207.203 129.99 206.543 129.99Z" fill="url(#paint0_linear_1_50724)"/>
  <path d="M127.5 89.6484C120.014 89.6484 112.695 91.8684 106.471 96.0276C100.246 100.187 95.3946 106.098 92.5297 113.015C89.6648 119.931 88.9152 127.542 90.3758 134.884C91.8363 142.227 95.4413 148.971 100.735 154.265C106.029 159.559 112.773 163.164 120.116 164.624C127.458 166.085 135.069 165.335 141.985 162.47C148.902 159.605 154.813 154.754 158.972 148.529C163.132 142.305 165.352 134.986 165.352 127.5C165.338 117.465 161.346 107.845 154.251 100.749C147.155 93.6538 137.535 89.6616 127.5 89.6484ZM127.5 149.329C123.185 149.329 118.967 148.05 115.379 145.653C111.791 143.256 108.994 139.849 107.342 135.862C105.691 131.876 105.258 127.489 106.099 123.257C106.94 119.025 109.017 115.137 112.068 112.085C115.118 109.033 119.005 106.954 123.237 106.111C127.469 105.268 131.856 105.699 135.843 107.349C139.83 108.999 143.239 111.794 145.637 115.38C148.036 118.967 149.317 123.185 149.319 127.5C149.313 133.285 147.012 138.831 142.921 142.921C138.831 147.012 133.285 149.313 127.5 149.319V149.329Z" fill="url(#paint1_linear_1_50724)"/>
  <path d="M127.503 144.338C136.803 144.338 144.342 136.799 144.342 127.499C144.342 118.199 136.803 110.66 127.503 110.66C118.203 110.66 110.664 118.199 110.664 127.499C110.664 136.799 118.203 144.338 127.503 144.338Z" fill="url(#paint2_linear_1_50724)"/>
  <path d="M58.9568 43.5527V84.3926C57.2303 85.4684 55.5701 86.5574 53.9764 87.6598V46.043H41.3359C41.6481 44.3975 41.6481 42.708 41.3359 41.0625H56.4616C56.7891 41.0619 57.1134 41.1258 57.4161 41.2506C57.7188 41.3755 57.9939 41.5588 58.2257 41.7901C58.4575 42.0214 58.6413 42.2962 58.7668 42.5986C58.8923 42.9011 58.9568 43.2253 58.9568 43.5527Z" fill="url(#paint3_linear_1_50724)"/>
  <path d="M213.421 43.5488C213.42 44.3844 213.499 45.2182 213.655 46.0391H201.02V87.6559C199.426 86.5568 197.766 85.4678 196.039 84.3887V43.5488C196.039 42.8884 196.301 42.255 196.768 41.788C197.235 41.321 197.869 41.0586 198.529 41.0586H213.66C213.502 41.8793 213.422 42.7131 213.421 43.5488Z" fill="url(#paint4_linear_1_50724)"/>
  <path d="M101.527 39.9023V67.2949C99.8406 67.6269 98.1805 68.0005 96.5469 68.4155V39.9023C98.1924 40.2145 99.8819 40.2145 101.527 39.9023Z" fill="url(#paint5_linear_1_50724)"/>
  <path d="M158.457 39.9023V68.4354C156.823 68.0304 155.163 67.6568 153.477 67.3148V39.9223C155.122 40.2344 156.812 40.2344 158.457 39.9223V39.9023Z" fill="url(#paint6_linear_1_50724)"/>
  <path d="M36.5996 43.5498C36.5996 45.2541 36.0942 46.9202 35.1472 48.3372C34.2002 49.7543 32.8542 50.8586 31.2795 51.5106C29.7048 52.1626 27.9721 52.333 26.3006 52.0001C24.6291 51.6672 23.0939 50.8461 21.8891 49.6406C20.6843 48.4351 19.864 46.8994 19.5321 45.2277C19.2002 43.556 19.3716 41.8234 20.0245 40.2491C20.6774 38.6748 21.7825 37.3294 23.2001 36.3833C24.6177 35.4371 26.284 34.9326 27.9884 34.9336C30.2731 34.9362 32.4634 35.8457 34.078 37.4622C35.6927 39.0787 36.5996 41.27 36.5996 43.5548V43.5498Z" fill="url(#paint7_linear_1_50724)"/>
  <path d="M235.628 43.5497C235.656 44.6983 235.454 45.8408 235.033 46.91C234.613 47.9793 233.983 48.9536 233.18 49.7757C232.377 50.5979 231.419 51.2512 230.36 51.6972C229.301 52.1433 228.164 52.373 227.015 52.373C225.866 52.373 224.728 52.1433 223.67 51.6972C222.611 51.2512 221.652 50.5979 220.849 49.7757C220.047 48.9536 219.417 47.9793 218.996 46.91C218.576 45.8408 218.373 44.6983 218.401 43.5497C218.455 41.3011 219.386 39.1627 220.996 37.5915C222.605 36.0202 224.765 35.1406 227.015 35.1406C229.264 35.1406 231.424 36.0202 233.034 37.5915C234.643 39.1627 235.574 41.3011 235.628 43.5497Z" fill="url(#paint8_linear_1_50724)"/>
  <path d="M164.576 26.5459C164.576 28.25 164.071 29.9159 163.124 31.3328C162.177 32.7497 160.832 33.8541 159.257 34.5062C157.683 35.1584 155.95 35.329 154.279 34.9966C152.608 34.6641 151.072 33.8435 149.867 32.6385C148.662 31.4335 147.842 29.8982 147.509 28.2268C147.177 26.5555 147.347 24.823 148 23.2486C148.652 21.6742 149.756 20.3285 151.173 19.3818C152.59 18.435 154.256 17.9297 155.96 17.9297C158.244 17.9323 160.434 18.8409 162.05 20.4562C163.665 22.0715 164.574 24.2615 164.576 26.5459Z" fill="url(#paint9_linear_1_50724)"/>
  <path d="M107.646 26.5459C107.646 28.2502 107.141 29.9163 106.194 31.3333C105.247 32.7504 103.901 33.8547 102.326 34.5067C100.752 35.1587 99.019 35.3291 97.3475 34.9962C95.676 34.6633 94.1407 33.8422 92.9359 32.6367C91.7311 31.4312 90.9109 29.8955 90.579 28.2238C90.2471 26.5521 90.4185 24.8195 91.0714 23.2452C91.7243 21.6708 92.8294 20.3255 94.247 19.3794C95.6646 18.4332 97.3309 17.9287 99.0353 17.9297C101.319 17.9323 103.509 18.8411 105.123 20.4565C106.738 22.072 107.645 24.262 107.646 26.5459Z" fill="url(#paint10_linear_1_50724)"/>
  <path d="M58.9568 170.611V211.451C58.9568 212.111 58.6945 212.745 58.2275 213.212C57.7605 213.679 57.1271 213.941 56.4666 213.941H41.3359C41.6481 212.296 41.6481 210.606 41.3359 208.961H53.9714V167.344C55.5685 168.443 57.2303 169.532 58.9568 170.611Z" fill="url(#paint11_linear_1_50724)"/>
  <path d="M213.421 211.451C213.42 212.286 213.498 213.12 213.655 213.941H198.529C197.869 213.941 197.235 213.679 196.768 213.212C196.301 212.745 196.039 212.111 196.039 211.451V170.611C197.766 169.535 199.426 168.446 201.02 167.344V208.956H213.66C213.502 209.778 213.422 210.613 213.421 211.451Z" fill="url(#paint12_linear_1_50724)"/>
  <path d="M101.527 187.683V215.076C99.8819 214.764 98.1924 214.764 96.5469 215.076V186.562C98.1805 186.964 99.8406 187.338 101.527 187.683Z" fill="url(#paint13_linear_1_50724)"/>
  <path d="M158.457 186.562V215.096C156.812 214.783 155.122 214.783 153.477 215.096V187.703C155.167 187.344 156.827 186.964 158.457 186.562Z" fill="url(#paint14_linear_1_50724)"/>
  <path d="M36.5996 211.444C36.5996 213.149 36.0942 214.815 35.1472 216.232C34.2002 217.649 32.8542 218.753 31.2795 219.405C29.7048 220.057 27.9721 220.227 26.3006 219.895C24.6291 219.562 23.0939 218.741 21.8891 217.535C20.6843 216.33 19.864 214.794 19.5321 213.122C19.2002 211.451 19.3716 209.718 20.0245 208.144C20.6774 206.569 21.7825 205.224 23.2001 204.278C24.6177 203.332 26.284 202.827 27.9884 202.828C30.2731 202.831 32.4634 203.74 34.078 205.357C35.6927 206.973 36.5996 209.165 36.5996 211.449V211.444Z" fill="url(#paint15_linear_1_50724)"/>
  <path d="M235.634 211.452C235.58 213.701 234.648 215.839 233.039 217.41C231.429 218.982 229.269 219.861 227.02 219.861C224.771 219.861 222.611 218.982 221.001 217.41C219.392 215.839 218.46 213.701 218.406 211.452C218.46 209.203 219.392 207.065 221.001 205.494C222.611 203.923 224.771 203.043 227.02 203.043C229.269 203.043 231.429 203.923 233.039 205.494C234.648 207.065 235.58 209.203 235.634 211.452Z" fill="url(#paint16_linear_1_50724)"/>
  <path d="M164.576 228.455C164.577 230.159 164.073 231.826 163.127 233.243C162.18 234.661 160.835 235.766 159.261 236.419C157.686 237.072 155.954 237.243 154.282 236.911C152.61 236.579 151.075 235.759 149.869 234.554C148.664 233.349 147.843 231.814 147.51 230.143C147.177 228.471 147.347 226.739 147.999 225.164C148.651 223.589 149.756 222.243 151.173 221.296C152.59 220.349 154.256 219.844 155.96 219.844C158.243 219.846 160.433 220.754 162.048 222.369C163.663 223.983 164.572 226.171 164.576 228.455Z" fill="url(#paint17_linear_1_50724)"/>
  <path d="M107.646 228.455C107.647 230.16 107.143 231.826 106.196 233.244C105.25 234.661 103.904 235.767 102.33 236.419C100.755 237.072 99.0224 237.243 97.3506 236.911C95.6787 236.579 94.143 235.758 92.9377 234.553C91.7324 233.347 90.9117 231.812 90.5794 230.14C90.2471 228.468 90.4181 226.735 91.0709 225.16C91.7236 223.586 92.8288 222.24 94.2465 221.294C95.6642 220.347 97.3307 219.843 99.0353 219.844C101.318 219.848 103.506 220.756 105.12 222.37C106.734 223.984 107.643 226.172 107.646 228.455Z" fill="url(#paint18_linear_1_50724)"/>
  <defs>
    <linearGradient id="paint0_linear_1_50724" x1="127.503" y1="69.7266" x2="127.503" y2="185.273" gradientUnits="userSpaceOnUse">
      <stop stop-color="#C1409E"/>
      <stop offset="1" stop-color="#1F3FA4"/>
    </linearGradient>
    <linearGradient id="paint1_linear_1_50724" x1="127.5" y1="89.6484" x2="127.5" y2="165.352" gradientUnits="userSpaceOnUse">
      <stop stop-color="#C1409E"/>
      <stop offset="1" stop-color="#1F3FA4"/>
    </linearGradient>
    <linearGradient id="paint2_linear_1_50724" x1="127.503" y1="110.66" x2="127.503" y2="144.338" gradientUnits="userSpaceOnUse">
      <stop stop-color="#C1409E"/>
      <stop offset="1" stop-color="#1F3FA4"/>
    </linearGradient>
    <linearGradient id="paint3_linear_1_50724" x1="50.1464" y1="41.0625" x2="50.1464" y2="87.6598" gradientUnits="userSpaceOnUse">
      <stop stop-color="#C1409E"/>
      <stop offset="1" stop-color="#1F3FA4"/>
    </linearGradient>
    <linearGradient id="paint4_linear_1_50724" x1="204.85" y1="41.0586" x2="204.85" y2="87.6559" gradientUnits="userSpaceOnUse">
      <stop stop-color="#C1409E"/>
      <stop offset="1" stop-color="#1F3FA4"/>
    </linearGradient>
    <linearGradient id="paint5_linear_1_50724" x1="99.0371" y1="39.9023" x2="99.0371" y2="68.4155" gradientUnits="userSpaceOnUse">
      <stop stop-color="#C1409E"/>
      <stop offset="1" stop-color="#1F3FA4"/>
    </linearGradient>
    <linearGradient id="paint6_linear_1_50724" x1="155.967" y1="39.9023" x2="155.967" y2="68.4354" gradientUnits="userSpaceOnUse">
      <stop stop-color="#C1409E"/>
      <stop offset="1" stop-color="#1F3FA4"/>
    </linearGradient>
    <linearGradient id="paint7_linear_1_50724" x1="27.9834" y1="34.9336" x2="27.9834" y2="52.166" gradientUnits="userSpaceOnUse">
      <stop stop-color="#C1409E"/>
      <stop offset="1" stop-color="#1F3FA4"/>
    </linearGradient>
    <linearGradient id="paint8_linear_1_50724" x1="227.015" y1="35.1406" x2="227.015" y2="52.373" gradientUnits="userSpaceOnUse">
      <stop stop-color="#C1409E"/>
      <stop offset="1" stop-color="#1F3FA4"/>
    </linearGradient>
    <linearGradient id="paint9_linear_1_50724" x1="155.96" y1="17.9297" x2="155.96" y2="35.1621" gradientUnits="userSpaceOnUse">
      <stop stop-color="#C1409E"/>
      <stop offset="1" stop-color="#1F3FA4"/>
    </linearGradient>
    <linearGradient id="paint10_linear_1_50724" x1="99.0303" y1="17.9297" x2="99.0303" y2="35.1621" gradientUnits="userSpaceOnUse">
      <stop stop-color="#C1409E"/>
      <stop offset="1" stop-color="#1F3FA4"/>
    </linearGradient>
    <linearGradient id="paint11_linear_1_50724" x1="50.1464" y1="167.344" x2="50.1464" y2="213.941" gradientUnits="userSpaceOnUse">
      <stop stop-color="#C1409E"/>
      <stop offset="1" stop-color="#1F3FA4"/>
    </linearGradient>
    <linearGradient id="paint12_linear_1_50724" x1="204.85" y1="167.344" x2="204.85" y2="213.941" gradientUnits="userSpaceOnUse">
      <stop stop-color="#C1409E"/>
      <stop offset="1" stop-color="#1F3FA4"/>
    </linearGradient>
    <linearGradient id="paint13_linear_1_50724" x1="99.0371" y1="186.562" x2="99.0371" y2="215.076" gradientUnits="userSpaceOnUse">
      <stop stop-color="#C1409E"/>
      <stop offset="1" stop-color="#1F3FA4"/>
    </linearGradient>
    <linearGradient id="paint14_linear_1_50724" x1="155.967" y1="186.562" x2="155.967" y2="215.096" gradientUnits="userSpaceOnUse">
      <stop stop-color="#C1409E"/>
      <stop offset="1" stop-color="#1F3FA4"/>
    </linearGradient>
    <linearGradient id="paint15_linear_1_50724" x1="27.9834" y1="202.828" x2="27.9834" y2="220.061" gradientUnits="userSpaceOnUse">
      <stop stop-color="#C1409E"/>
      <stop offset="1" stop-color="#1F3FA4"/>
    </linearGradient>
    <linearGradient id="paint16_linear_1_50724" x1="227.02" y1="203.043" x2="227.02" y2="219.861" gradientUnits="userSpaceOnUse">
      <stop stop-color="#C1409E"/>
      <stop offset="1" stop-color="#1F3FA4"/>
    </linearGradient>
    <linearGradient id="paint17_linear_1_50724" x1="155.96" y1="219.844" x2="155.96" y2="237.076" gradientUnits="userSpaceOnUse">
      <stop stop-color="#C1409E"/>
      <stop offset="1" stop-color="#1F3FA4"/>
    </linearGradient>
    <linearGradient id="paint18_linear_1_50724" x1="99.0303" y1="219.844" x2="99.0303" y2="237.076" gradientUnits="userSpaceOnUse">
      <stop stop-color="#C1409E"/>
      <stop offset="1" stop-color="#1F3FA4"/>
    </linearGradient>
  </defs>
</svg>